Genre:Action | Comedy | Drama | Western
Language:English
IMDb:http://www.imdb.com/title/tt1376195/
Source:DVD 
Subtitles: ROMANA
............................................
General
Complete name : Gunless 2010 DVDRIP XVID FEEL-FREE
Format : AVI
Format/Info : Audio Video Interleave
File size : 970 MiB
Duration : 1h 28mn
Overall bit rate : 1 532 Kbps
.............................................
Video
Format : xvid
Codec ID : xvid
Duration : 1h 28mn
Bit rate : 1 199 Kbps
Width : 720 pixels
Height : 304 pixels
Display aspect ratio : 2.35:1
Frame rate : 29.970 fps
Resolution : 24 bits
Bits/(Pixel*Frame) : 0.183
Stream size : 759 MiB (78%)
.............................................
Audio
ID : 1
Format : MPEG Audio
Format version : Version 1
Format profile : Layer 3
Format settings, Mode : Joint stereo / MS Stereo
Codec ID : 55
Codec ID/Hint : MP3
Duration : 1h 28mn
Bit rate mode : Constant
Bit rate : 320 Kbps
Channel(s) : 2 channels
Sampling rate : 44.1 KHz
Resolution : 16 bits
Stream size : 203 MiB (21%)
Alignment : Aligned on interleaves
Interleave, duration : 26 ms (0.78 video frame)
Interleave, preload duration : 26 ms
Writing library : LAME3.97
.............................................
Plot:
A hardened American gunslinger is repeatedly thwarted in his attempts to mount a showdown in a friendly town in Canada where no one seems to understand or appreciate the brutal code of the American Wild West
..........................................


Screenshots:
 
http://www.starshare.ro/bitbucket/Gunless%202010%20DVDRIP%20XVID%20FEEL-FREE.avi_thumbs_%5B2010.08.17_16.09.06%5D.jpg
 
http://www.starshare.ro/bitbucket/Gunless%202010%20DVDRIP%20XVID%20FEEL-FREE.avi_snapshot_00.19.51_%5B2010.08.17_16.09.13%5D.jpg
 
http://www.starshare.ro/bitbucket/Gunless%202010%20DVDRIP%20XVID%20FEEL-FREE.avi_snapshot_01.09.48_%5B2010.08.17_16.09.22%5D.jpg
 
http://www.starshare.ro/bitbucket/Gunless%202010%20DVDRIP%20XVID%20FEEL-FREE.avi_snapshot_01.18.32_%5B2010.08.17_16.09.25%5D.jpg
 
http://www.starshare.ro/bitbucket/Gunless%202010%20DVDRIP%20XVID%20FEEL-FREE.avi_snapshot_01.18.40_%5B2010.08.17_16.09.29%5D.jpg


...............................................